<svg width="95" height="24" viewBox="0 0 95 24" fill="none" xmlns="http://www.w3.org/2000/svg">
<path fill-rule="evenodd" clip-rule="evenodd" d="M3.39691 6.54691C4.23372 5.35295 5.51076 4.60109 7.16235 4.60109C10.6854 4.60109 12.6671 7.38727 12.6671 10.7925C12.6671 14.2646 10.399 17.0287 7.11829 17.0287C5.4006 17.0287 4.14559 16.2989 3.35284 15.1046L3.22065 16.6968H0.0280457V0.355461H3.39691V6.54691ZM3.39691 10.8147C3.39691 12.9596 4.65192 14.0655 6.28148 14.0655C7.93307 14.0655 9.23214 12.8936 9.23214 10.8147C9.23214 8.66972 7.99917 7.56427 6.41367 7.56427C4.80614 7.56427 3.39691 8.69185 3.39691 10.8147ZM14.5347 0.355507H17.9035V16.6968H14.5347V0.355507ZM28.171 4.93035V11.1218C28.171 13.1344 27.1579 13.9305 25.8809 13.9305C24.5598 13.9305 23.8331 13.2446 23.8331 11.4316V4.93035H20.4643V11.9843C20.4643 15.3236 22.1375 17.0039 24.5157 17.0039C26.1232 17.0039 27.3342 16.4069 28.2151 15.1466L28.3473 16.6724H31.5399V4.93035H28.171ZM39.836 4.55733C43.1388 4.55733 45.5831 6.68014 45.5831 11.0585C45.5831 11.2798 45.5831 11.5006 45.5611 11.7219H37.2599C37.5679 13.3141 38.603 14.066 40.2762 14.066C41.3554 14.066 42.3244 13.7341 43.271 12.9158L44.8785 15.2157C43.5794 16.41 41.9719 17.007 39.9462 17.007C36.2689 17.007 33.7804 14.6629 33.7804 10.8373C33.7804 6.74652 36.7091 4.55733 39.836 4.55733ZM42.1482 9.55482C41.9499 8.20598 41.1791 7.27712 39.7919 7.27712C38.5149 7.27712 37.59 8.13961 37.2819 9.55482H42.1482Z" fill="#2A7DE1"/>
<path fill-rule="evenodd" clip-rule="evenodd" d="M53.0014 4.37839C53.0014 3.29548 53.5738 2.74192 54.4331 2.74192C54.9831 2.74192 55.4462 2.94063 55.8864 3.27252L57.2291 0.907155C56.3711 0.30976 55.358 0 54.081 0C51.2837 0 49.6317 1.65901 49.6317 4.55539V4.93153H48.0691L47.3645 7.78366H49.6317V16.6732H53.0014V7.78366H56.3271V4.93153H53.0014V4.37839ZM61.6709 6.94192L61.5387 4.9289H58.3452V16.6714H61.7149V10.8995C61.7149 8.55543 63.6085 7.91504 65.6558 8.11333V4.70889C64.2249 4.70889 62.7064 5.15141 61.6709 6.94192ZM79.4522 17.804H82.2798C82.2935 19.6604 83.7963 21.1608 85.647 21.1608C87.499 21.1608 89.0009 19.6604 89.0146 17.804H91.8431C91.8294 21.2284 89.0608 24 85.647 24C82.2337 24 79.4659 21.2284 79.4522 17.804ZM72.2614 17.3478C68.9736 17.3478 66.2994 14.6623 66.2994 11.3605C66.2994 8.05878 68.9736 5.37321 72.2614 5.37321C75.5488 5.37321 78.2231 8.05878 78.2231 11.3605C78.2231 14.6623 75.5488 17.3478 72.2614 17.3478ZM72.2614 8.32136C70.5932 8.32136 69.2351 9.68523 69.2351 11.3605C69.2351 13.0366 70.5932 14.3997 72.2614 14.3997C73.9301 14.3997 75.2874 13.0366 75.2874 11.3605C75.2874 9.68523 73.9301 8.32136 72.2614 8.32136ZM79.6858 11.1916C79.6858 14.4933 82.36 17.1789 85.6474 17.1789C88.9356 17.1789 91.6098 14.4933 91.6098 11.1916C91.6098 7.88981 88.9356 5.20425 85.6474 5.20425C82.36 5.20425 79.6858 7.88981 79.6858 11.1916ZM82.6215 11.1916C82.6215 9.51626 83.9792 8.1524 85.6474 8.1524C87.3156 8.1524 88.6746 9.51626 88.6746 11.1916C88.6746 12.8673 87.3156 14.2307 85.6474 14.2307C83.9792 14.2307 82.6215 12.8673 82.6215 11.1916Z" fill="black"/>
<path d="M93.0794 6.98695C94.1403 6.98695 95 6.12321 95 5.05825C95 3.99288 94.1403 3.12955 93.0794 3.12955C92.0186 3.12955 91.1589 3.99288 91.1589 5.05825C91.1589 6.12321 92.0186 6.98695 93.0794 6.98695Z" fill="#2A7DE1"/>
<path d="M1.33233 23.6736C1.76799 23.6736 2.15542 23.4958 2.39903 23.1476L2.11136 22.8842C1.9193 23.1326 1.67196 23.2737 1.35062 23.2737C0.822678 23.2737 0.427759 22.8658 0.427759 22.2576C0.427759 21.6347 0.83016 21.2415 1.37307 21.2415C1.67196 21.2415 1.92305 21.3567 2.09639 21.5755L2.38074 21.2899C2.14087 21.0048 1.80499 20.8415 1.3581 20.8415C0.597782 20.8415 0 21.4047 0 22.2576C0 23.0959 0.582817 23.6736 1.33233 23.6736ZM4.44096 23.6774C5.14641 23.6774 5.81403 23.1551 5.81403 22.2576C5.81403 21.3492 5.14267 20.8344 4.44096 20.8344C3.73926 20.8344 3.07912 21.3492 3.07912 22.2576C3.07912 23.1551 3.73926 23.6774 4.44096 23.6774ZM4.44096 23.2737C3.94628 23.2737 3.50688 22.9105 3.50688 22.2576C3.50688 21.5976 3.94628 21.2344 4.44096 21.2344C4.93191 21.2344 5.38627 21.5976 5.38627 22.2576C5.38627 22.9105 4.93191 23.2737 4.44096 23.2737ZM8.54978 20.8862V22.721L6.89611 20.8415H6.81879V23.6256H7.23158V21.7942L8.88941 23.6661H8.96673V20.8862H8.54978ZM11.865 20.8862V22.721L10.2109 20.8415H10.1336V23.6256H10.5468V21.7942L12.2042 23.6661H12.2816V20.8862H11.865ZM13.8579 23.2441V22.4058H15.0356V22.028H13.8579V21.264H15.0913V20.8862H13.4488V23.6256H15.1316V23.2441H13.8579ZM17.2949 23.6736C17.7306 23.6736 18.118 23.4958 18.362 23.1476L18.074 22.8842C17.8819 23.1326 17.6346 23.2737 17.3136 23.2737C16.7857 23.2737 16.3904 22.8658 16.3904 22.2576C16.3904 21.6347 16.7928 21.2415 17.3357 21.2415C17.6346 21.2415 17.8857 21.3567 18.059 21.5755L18.3433 21.2899C18.1035 21.0048 17.7676 20.8415 17.3207 20.8415C16.5604 20.8415 15.9626 21.4047 15.9626 22.2576C15.9626 23.0959 16.5454 23.6736 17.2949 23.6736ZM19.8943 23.6256H20.3075V21.264H21.1419V20.8862H19.06V21.264H19.8943V23.6256ZM24.2688 20.8862H23.3941V23.6256H23.8069V22.6095H24.2098C24.8853 22.6095 25.2873 22.3281 25.2873 21.7424C25.2873 21.2047 24.8965 20.8862 24.2688 20.8862ZM24.2098 22.2392H23.8069V21.264H24.2576C24.6529 21.264 24.8595 21.4197 24.8595 21.7424C24.8595 22.0873 24.6417 22.2392 24.2098 22.2392ZM26.6828 23.2441V22.4058H27.8605V22.028H26.6828V21.264H27.9158V20.8862H26.2733V23.6256H27.9565V23.2441H26.6828ZM30.1493 23.6774C30.8548 23.6774 31.5224 23.1551 31.5224 22.2576C31.5224 21.3492 30.851 20.8344 30.1493 20.8344C29.448 20.8344 28.7875 21.3492 28.7875 22.2576C28.7875 23.1551 29.448 23.6774 30.1493 23.6774ZM30.1493 23.2737C29.6546 23.2737 29.2152 22.9105 29.2152 22.2576C29.2152 21.5976 29.6546 21.2344 30.1493 21.2344C30.6407 21.2344 31.0946 21.5976 31.0946 22.2576C31.0946 22.9105 30.6407 23.2737 30.1493 23.2737ZM33.4018 20.8862H32.5272V23.6256H32.9399V22.6095H33.3428C34.0183 22.6095 34.4203 22.3281 34.4203 21.7424C34.4203 21.2047 34.0295 20.8862 33.4018 20.8862ZM33.3428 22.2392H32.9399V21.264H33.3906C33.7859 21.264 33.9925 21.4197 33.9925 21.7424C33.9925 22.0873 33.7747 22.2392 33.3428 22.2392ZM35.8195 23.2441V20.8862H35.4063V23.6256H36.8862V23.2441H35.8195ZM38.2447 23.2441V22.4058H39.4224V22.028H38.2447V21.264H39.4777V20.8862H37.8357V23.6256H39.5185V23.2441H38.2447ZM43.5204 23.6256H43.9744L42.7896 20.8415H42.7231L41.5346 23.6256H41.9773L42.2284 22.9915H43.2656L43.5204 23.6256ZM43.1438 22.6362H42.3502L42.7452 21.6389L43.1438 22.6362ZM46.5256 20.8862V22.721L44.8715 20.8415H44.7942V23.6256H45.2074V21.7942L46.8648 23.6661H46.9421V20.8862H46.5256ZM48.8252 20.8862H48.1094V23.6256H48.8252C49.7373 23.6256 50.3534 23.1105 50.3534 22.2317C50.3534 21.3826 49.7743 20.8862 48.8252 20.8862ZM48.829 23.2441H48.5184V21.264H48.829C49.5082 21.264 49.9256 21.5755 49.9256 22.2317C49.9256 22.8842 49.4862 23.2441 48.829 23.2441ZM53.425 23.6736C54.0082 23.6736 54.3994 23.3476 54.3994 22.8362C54.3994 21.8351 52.9374 22.2501 52.9374 21.6347C52.9374 21.3901 53.1444 21.2231 53.4915 21.2231C53.7646 21.2231 53.9679 21.3233 54.1338 21.4865L54.3699 21.1822C54.1745 20.9897 53.8827 20.8382 53.4915 20.8382C52.9079 20.8382 52.5171 21.1751 52.5171 21.646C52.5171 22.6767 53.9754 22.2317 53.9754 22.8696C53.9754 23.1217 53.7758 23.285 53.4325 23.285C53.1552 23.285 52.9004 23.1735 52.6717 22.951L52.4211 23.2624C52.6422 23.4774 52.9561 23.6736 53.425 23.6736ZM55.7912 23.2441V22.4058H56.9685V22.028H55.7912V21.264H57.0242V20.8862H55.3817V23.6256H57.0645V23.2441H55.7912ZM60.0546 23.6256L59.1505 22.4726C59.6934 22.4242 59.9919 22.1616 59.9919 21.6903C59.9919 21.1638 59.6161 20.8862 58.9992 20.8862H58.1245V23.6256H58.5377V22.291L59.5421 23.6256H60.0546ZM58.5377 22.1578V21.2603H58.9696C59.3687 21.2603 59.5608 21.4122 59.5608 21.7053C59.5608 22.013 59.3463 22.1578 58.8736 22.1578H58.5377ZM62.7131 20.8862L61.9303 22.8212L61.1442 20.8862H60.679L61.8787 23.6661H61.9561L63.1633 20.8862H62.7131ZM63.983 23.6256H64.3958V20.8862H63.983V23.6256ZM66.7146 23.6736C67.1503 23.6736 67.5377 23.4958 67.7813 23.1476L67.4937 22.8842C67.3016 23.1326 67.0543 23.2737 66.7329 23.2737C66.205 23.2737 65.8101 22.8658 65.8101 22.2576C65.8101 21.6347 66.2125 21.2415 66.7554 21.2415C67.0543 21.2415 67.3053 21.3567 67.4787 21.5755L67.763 21.2899C67.5232 21.0048 67.1873 20.8415 66.7404 20.8415C65.9801 20.8415 65.3823 21.4047 65.3823 22.2576C65.3823 23.0959 65.9651 23.6736 66.7146 23.6736ZM69.1178 23.2441V22.4058H70.2955V22.028H69.1178V21.264H70.3508V20.8862H68.7083V23.6256H70.3915V23.2441H69.1178ZM72.1782 23.6736C72.7619 23.6736 73.1526 23.3476 73.1526 22.8362C73.1526 21.8351 71.691 22.2501 71.691 21.6347C71.691 21.3901 71.8976 21.2231 72.2447 21.2231C72.5183 21.2231 72.7211 21.3233 72.8874 21.4865L73.1231 21.1822C72.9277 20.9897 72.6363 20.8382 72.2447 20.8382C71.6615 20.8382 71.2703 21.1751 71.2703 21.646C71.2703 22.6767 72.7286 22.2317 72.7286 22.8696C72.7286 23.1217 72.5291 23.285 72.1857 23.285C71.9088 23.285 71.654 23.1735 71.4254 22.951L71.1743 23.2624C71.3959 23.4774 71.7093 23.6736 72.1782 23.6736Z" fill="#898C8E"/>
</svg>
