<svg width="16" height="16" viewBox="0 0 16 16" fill="none" xmlns="http://www.w3.org/2000/svg">
<rect width="16" height="16" rx="4" fill="#2A7DE1"/>
<path fill-rule="evenodd" clip-rule="evenodd" d="M11.4205 4.86355C11.928 4.86355 12.3396 4.45215 12.3396 3.94469C12.3396 3.43701 11.928 3.02539 11.4205 3.02539C10.9131 3.02539 10.5015 3.43701 10.5015 3.94469C10.5015 4.45215 10.9131 4.86355 11.4205 4.86355ZM6.25297 10.0195H4.8999C4.90648 11.6513 6.23082 12.9719 7.86416 12.9719C9.49771 12.9719 10.8227 11.6513 10.8291 10.0195H9.47556C9.46899 10.9042 8.75034 11.6189 7.86416 11.6189C6.97863 11.6189 6.25955 10.9042 6.25297 10.0195ZM5.01172 6.86652C5.01172 8.43977 6.29133 9.71938 7.86435 9.71938C9.43782 9.71938 10.7174 8.43977 10.7174 6.86652C10.7174 5.29328 9.43782 4.01367 7.86435 4.01367C6.29133 4.01367 5.01172 5.29328 5.01172 6.86652ZM6.41633 6.86652C6.41633 6.06806 7.06589 5.41828 7.86435 5.41828C8.6626 5.41828 9.31282 6.06806 9.31282 6.86652C9.31282 7.66477 8.6626 8.31455 7.86435 8.31455C7.06589 8.31455 6.41633 7.66477 6.41633 6.86652Z" fill="white"/>
</svg>
